<svg width="1920" height="812" viewBox="0 0 1920 812" fill="none" xmlns="http://www.w3.org/2000/svg">
<path d="M0 723.639L80 703.663C160 682.18 320 644.491 480 623.008C640 603.032 800 603.032 960 663.335C1120 723.639 1280 844.245 1440 803.917C1600 765.097 1760 561.574 1840 462.45L1920 361.819V0H1840C1760 0 1600 0 1440 0C1280 0 1120 0 960 0C800 0 640 0 480 0C320 0 160 0 80 0H0V723.639Z" fill="url(#paint0_linear_24_89)"/>
<path d="M0 723.639L80 703.663C160 682.18 320 644.491 480 623.008C640 603.032 800 603.032 960 663.335C1120 723.639 1280 844.245 1440 803.917C1600 765.097 1760 561.574 1840 462.45L1920 361.819V0H1840C1760 0 1600 0 1440 0C1280 0 1120 0 960 0C800 0 640 0 480 0C320 0 160 0 80 0H0V723.639Z" fill="black" fill-opacity="0.2"/>
<defs>
<linearGradient id="paint0_linear_24_89" x1="960" y1="0" x2="960" y2="812" gradientUnits="userSpaceOnUse">
<stop stop-color="#070C1F"/>
<stop offset="1" stop-color="#2C1D22"/>
</linearGradient>
</defs>
</svg>
